<!-- Generated by IcoMoon.io -->
<svg version="1.1" xmlns="http://www.w3.org/2000/svg" width="26" height="32" viewBox="0 0 26 32">
<title>rotate</title>
<path d="M21.99 22.272c0 0.435-0.333 0.768-0.768 0.768h-3.072c-0.435 0-0.768-0.333-0.768-0.768v-3.046c0-0.435 0.333-0.768 0.768-0.768s0.768 0.333 0.768 0.768v1.357c2.381-1.869 3.814-4.762 3.814-7.834 0-5.478-4.454-9.933-9.933-9.933-0.435 0-0.768-0.333-0.768-0.768s0.333-0.768 0.768-0.768c6.323 0 11.469 5.146 11.469 11.469 0 3.405-1.536 6.605-4.070 8.755h1.024c0.41 0 0.768 0.358 0.768 0.768zM12.8 22.784c-5.478 0-9.933-4.454-9.933-9.933 0-3.072 1.434-5.965 3.814-7.834v1.357c0 0.435 0.333 0.768 0.768 0.768s0.768-0.333 0.768-0.768v-3.046c0-0.435-0.333-0.768-0.768-0.768h-3.072c-0.435 0-0.768 0.333-0.768 0.768s0.333 0.768 0.768 0.768h1.024c-2.56 2.15-4.070 5.35-4.070 8.755 0 6.323 5.146 11.469 11.469 11.469 0.435 0 0.768-0.333 0.768-0.768s-0.333-0.768-0.768-0.768z"></path>
</svg>
